<?xml version="1.0" encoding="UTF-8"?>
<svg width="85" height="101" viewBox="0 0 85 101" xmlns="http://www.w3.org/2000/svg" xmlns:xlink="http://www.w3.org/1999/xlink">
    <title>
        Group 9
    </title>
    <defs>
        <rect id="path-1" width="79" height="95" rx="2"/>
        <filter x="-50%" y="-50%" width="200%" height="200%" filterUnits="objectBoundingBox" id="filter-2">
            <feOffset dy="1" in="SourceAlpha" result="shadowOffsetOuter1"/>
            <feGaussianBlur stdDeviation="1.5" in="shadowOffsetOuter1" result="shadowBlurOuter1"/>
            <feColorMatrix values="0 0 0 0 0 0 0 0 0 0 0 0 0 0 0 0 0 0 0.213881341 0" in="shadowBlurOuter1"/>
        </filter>
    </defs>
    <g id="Page-1" fill="none" fill-rule="evenodd">
        <g id="tools-explained-copy-2" transform="translate(-823 -290)">
            <g id="Group-7" transform="translate(805 276)">
                <g id="Group-9" transform="translate(21 16)">
                    <g id="Rectangle-3">
                        <use fill="#000" filter="url(#filter-2)" xlink:href="#path-1"/>
                        <use fill="#FFF" xlink:href="#path-1"/>
                    </g>
                    <g id="Group-2" opacity=".8" transform="translate(9 19)" fill="#C8CCD1">
                        <path id="Rectangle-5" d="M0 0h39v5H0z"/>
                        <g id="Group-5" transform="translate(1 16)">
                            <path id="Rectangle-5-Copy" d="M0 0h26.329v2H0z"/>
                            <path id="Rectangle-5-Copy-2" d="M0 7h26.329v2H0z"/>
                            <path id="Rectangle-5-Copy-3" d="M0 14h26.329v2H0z"/>
                            <path id="Rectangle-5-Copy-17" d="M0 21h26.329v2H0z"/>
                            <path id="Rectangle-5-Copy-18" d="M0 28h26.329v2H0z"/>
                            <path id="Rectangle-5-Copy-25" d="M0 35h26.329v2H0z"/>
                            <path id="Rectangle-5-Copy-26" d="M0 42h26.329v2H0z"/>
                        </g>
                        <g id="Group-5-Copy" transform="translate(33 16)">
                            <path id="Rectangle-5-Copy" d="M0 0h26.329v2H0z"/>
                            <path id="Rectangle-5-Copy-2" d="M0 7h26.329v2H0z"/>
                            <path id="Rectangle-5-Copy-3" d="M0 14h26.329v2H0z"/>
                            <path id="Rectangle-5-Copy-17" d="M0 21h26.329v2H0z"/>
                            <path id="Rectangle-5-Copy-18" d="M0 28h26.329v2H0z"/>
                            <path id="Rectangle-5-Copy-25" d="M0 35h26.329v2H0z"/>
                            <path id="Rectangle-5-Copy-26" d="M0 42h26.329v2H0z"/>
                        </g>
                    </g>
                </g>
            </g>
        </g>
    </g>
</svg>
