<?xml version="1.0" encoding="UTF-8" standalone="no"?>
<svg xmlns="http://www.w3.org/2000/svg" xmlns:xlink="http://www.w3.org/1999/xlink" width="85" height="101" viewBox="0 0 85 101" id="svg2">
    <title id="title4">
        Group 9
    </title>
    <defs id="defs6">
        <rect id="path-1" width="79" height="95" rx="2"/>
        <filter x="-50%" y="-50%" width="200%" height="200%" filterUnits="objectBoundingBox" id="filter-2">
            <feOffset dy="1" in="SourceAlpha" result="shadowOffsetOuter1" id="feOffset10"/>
            <feGaussianBlur stdDeviation="1.5" in="shadowOffsetOuter1" result="shadowBlurOuter1" id="feGaussianBlur12"/>
            <feColorMatrix values="0 0 0 0 0 0 0 0 0 0 0 0 0 0 0 0 0 0 0.213881341 0" in="shadowBlurOuter1" id="feColorMatrix14"/>
        </filter>
    </defs>
    <g id="Page-1" transform="matrix(-1 0 0 1 85 0)" fill="none" fill-rule="evenodd">
        <g id="tools-explained-copy-2" transform="translate(-823 -290)">
            <g id="Group-7" transform="translate(805 276)">
                <g id="Group-9" transform="translate(21 16)">
                    <g id="Rectangle-3">
                        <use xlink:href="#path-1" id="use21" width="100%" height="100%" fill="#000" filter="url(#filter-2)"/>
                        <use xlink:href="#path-1" id="use23" width="100%" height="100%" fill="#fff"/>
                    </g>
                    <g id="Group-2" transform="translate(9 19)" opacity=".8" fill="#c8ccd1">
                        <path id="Rectangle-5" d="M0 0h39v5H0z"/>
                        <g id="Group-5" transform="translate(1 16)">
                            <path id="Rectangle-5-Copy" d="M0 0h26.329v2H0z"/>
                            <path id="Rectangle-5-Copy-2" d="M0 7h26.329v2H0z"/>
                            <path id="Rectangle-5-Copy-3" d="M0 14h26.329v2H0z"/>
                            <path id="Rectangle-5-Copy-17" d="M0 21h26.329v2H0z"/>
                            <path id="Rectangle-5-Copy-18" d="M0 28h26.329v2H0z"/>
                            <path id="Rectangle-5-Copy-25" d="M0 35h26.329v2H0z"/>
                            <path id="Rectangle-5-Copy-26" d="M0 42h26.329v2H0z"/>
                        </g>
                        <g id="Group-5-Copy" transform="translate(33 16)">
                            <path id="path36" d="M0 0h26.329v2H0z"/>
                            <path id="path38" d="M0 7h26.329v2H0z"/>
                            <path id="path40" d="M0 14h26.329v2H0z"/>
                            <path id="path42" d="M0 21h26.329v2H0z"/>
                            <path id="path44" d="M0 28h26.329v2H0z"/>
                            <path id="path46" d="M0 35h26.329v2H0z"/>
                            <path id="path48" d="M0 42h26.329v2H0z"/>
                        </g>
                    </g>
                </g>
            </g>
        </g>
    </g>
</svg>
